<svg width="33" height="32" viewBox="0 0 33 32" fill="none" xmlns="http://www.w3.org/2000/svg">
<path d="M31.0491 14.184H2.14417V32H31.0491V14.184Z" fill="#FDB827"/>
<path d="M19.5992 14.184H13.5903V32H19.5992V14.184Z" fill="#AD1717"/>
<path d="M16.8123 5.6262C16.8123 5.6262 14.2421 -1.72231 10.1535 0.377267C6.0648 2.47684 6.23234 9.32254 11.7255 8.87749C17.2186 8.43243 16.8123 5.6262 16.8123 5.6262Z" fill="#D32F2F"/>
<path d="M17.2828 5.6262C17.2828 5.6262 19.8565 -1.72231 23.9452 0.377267C28.0339 2.47684 27.8663 9.32594 22.3732 8.87069C16.88 8.41544 17.2828 5.6262 17.2828 5.6262Z" fill="#D32F2F"/>
<path d="M17.0476 8.25237C18.3804 8.25237 19.4608 7.22261 19.4608 5.95235C19.4608 4.68208 18.3804 3.65233 17.0476 3.65233C15.7147 3.65233 14.6343 4.68208 14.6343 5.95235C14.6343 7.22261 15.7147 8.25237 17.0476 8.25237Z" fill="#AD1717"/>
<path d="M30.7893 7.702H2.4039C1.40577 7.702 0.596619 8.47317 0.596619 9.42446V12.6146C0.596619 13.5659 1.40577 14.3371 2.4039 14.3371H30.7893C31.7875 14.3371 32.5966 13.5659 32.5966 12.6146V9.42446C32.5966 8.47317 31.7875 7.702 30.7893 7.702Z" fill="#F3703A"/>
<path d="M19.5571 7.702H13.6362V14.3371H19.5571V7.702Z" fill="#D32F2F"/>
</svg>
